<svg id="Layer_1" data-name="Layer 1" xmlns="http://www.w3.org/2000/svg" viewBox="0 0 764.41 603.44"><title>logo</title><ellipse cx="212.71" cy="85.36" rx="81.88" ry="83.94" fill="none" stroke="#00aeef" stroke-miterlimit="10" stroke-width="2.84"/><text transform="translate(221.67 288.4) scale(1.16 1)" font-size="127.87" fill="#55b948" font-family="Cambria, Cambria"><tspan letter-spacing="-0.02em">R</tspan><tspan x="76.86" y="0">OCURE</tspan></text><text transform="translate(343.41 355.45) scale(0.99 1)" font-size="89.67" fill="#00aeef" font-family="Cambria, Cambria">INFINITY</text><circle cx="705.11" cy="347.23" r="10.6" fill="#00aeef"/><circle cx="736.91" cy="347.23" r="10.6" fill="#00aeef"/><path d="M246.41,373.77" transform="translate(-7.09 -8.56)" fill="#fff" stroke="#231f20" stroke-miterlimit="10" stroke-width="0.8"/><path d="M110.08,87.59a80.6,80.6,0,1,0,56.23,99.15A80.6,80.6,0,0,0,110.08,87.59ZM138,178.91a50.84,50.84,0,1,1-35.46-62.54A50.83,50.83,0,0,1,138,178.91Z" transform="translate(-7.09 -8.56)" fill="#00aeef"/><ellipse cx="81.52" cy="156.06" rx="80.61" ry="81.04" fill="none" stroke="#39b54a" stroke-miterlimit="10" stroke-width="1.82"/><path d="M299.56,74.4c-6.12-26.55-26.34-51.52-56.3-60.74-29.23-9-62-1.08-80.95,18.83C147.85,47.68,142.83,68.41,141,75.78a111.86,111.86,0,0,0-3.12,25.72q15.65,32.79,31.3,65.57,1.38,57.68,2.77,115.34a16.71,16.71,0,0,1-4.57,7c-6.21,5.57-14.52,4.06-15.65,3.84v3.7l37.08,0h31c0-1.22,0-2.44,0-3.66-1.7.12-8.51.39-13.82-4.44a16.79,16.79,0,0,1-3.72-5q-.24-40.44,1.44-82.94.44-10.81,1-21.49c9,.8,33.65,1.75,57.1-13.68C289.36,147.56,308.11,111.43,299.56,74.4ZM268.1,110a50.84,50.84,0,1,1-35.46-62.54A50.85,50.85,0,0,1,268.1,110Z" transform="translate(-7.09 -8.56)" fill="#55b948"/><path d="M283.39,145.94a77.69,77.69,0,0,1-15.25,15.63A84.39,84.39,0,0,1,231.6,177a86.64,86.64,0,0,1-18.56,1.1,175.68,175.68,0,0,1-42.12-15.63,205,205,0,0,1-30.75-20.29c-6.91-5.35-12.49-10.24-16.57-14q6.9-12.89,13.78-25.77l30,19.24q8.58,6.07,17.18,12.13A59.9,59.9,0,0,0,239.49,143Z" transform="translate(-7.09 -8.56)" fill="#00aeef"/><path d="M166.67,185.43l-42.56,16.68a47.56,47.56,0,0,0,8.55-10.35,51.25,51.25,0,0,0,7.14-25.65c.09-3.12,0-2.24-.7-12-.27-3.62-.38-6.36-.59-20-.14-8.86-.28-20.24-.39-33.71l30.11.55a280.69,280.69,0,0,1,1,66.19C168.55,173.44,167.68,179.56,166.67,185.43Z" transform="translate(-7.09 -8.56)" fill="#55b948"/><rect x="135.52" y="76.56" width="2.64" height="78.33" transform="translate(268.56 220.52) rotate(179.01)" fill="#fff"/></svg>